<svg width="64" height="64" viewBox="0 0 100 100" xmlns="http://www.w3.org/2000/svg">
  <rect width="100" height="100" rx="20" fill="#0f172a"/>
  <circle cx="50" cy="50" r="34" fill="none" stroke="#6366f1" stroke-width="5"/>
  <g stroke="#6366f1" stroke-width="3">
    <line x1="50" y1="50" x2="50" y2="18" transform="rotate(0 50 50)"/>
    <line x1="50" y1="50" x2="50" y2="18" transform="rotate(30 50 50)"/>
    <line x1="50" y1="50" x2="50" y2="18" transform="rotate(60 50 50)"/>
    <line x1="50" y1="50" x2="50" y2="18" transform="rotate(90 50 50)"/>
    <line x1="50" y1="50" x2="50" y2="18" transform="rotate(120 50 50)"/>
    <line x1="50" y1="50" x2="50" y2="18" transform="rotate(150 50 50)"/>
    <line x1="50" y1="50" x2="50" y2="18" transform="rotate(180 50 50)"/>
    <line x1="50" y1="50" x2="50" y2="18" transform="rotate(210 50 50)"/>
    <line x1="50" y1="50" x2="50" y2="18" transform="rotate(240 50 50)"/>
    <line x1="50" y1="50" x2="50" y2="18" transform="rotate(270 50 50)"/>
    <line x1="50" y1="50" x2="50" y2="18" transform="rotate(300 50 50)"/>
    <line x1="50" y1="50" x2="50" y2="18" transform="rotate(330 50 50)"/>
  </g>
  <circle cx="50" cy="50" r="6" fill="#6366f1"/>
</svg>
